Fly_normalized_Motion_pl07
version=1
nRows=14
nColumns=43
inDegrees=yes
endheader
time		pelvis_tilt		pelvis_list		pelvis_rotation		pelvis_tx		pelvis_ty		pelvis_tz		hip_flexion_r		hip_adduction_r		hip_rotation_r		knee_angle_r		ankle_angle_r		subtalar_angle_r		mtp_angle_r		hip_flexion_l		hip_adduction_l		hip_rotation_l		knee_angle_l		ankle_angle_l		subtalar_angle_l		mtp_angle_l		lumbar_extension		lumbar_bending		lumbar_rotation		neck_flexion		neck_lateral_bending		neck_rotation		arm_flex_r		arm_add_r		arm_rot_r		elbow_flex_r		pro_sup_r		wrist_flex_r		wrist_dev_r		hand_finger_flex_r		arm_flex_l		arm_add_l		arm_rot_l		elbow_flex_l		pro_sup_l		wrist_flex_l		wrist_dev_l		hand_finger_flex_l		
0.799545		-2.517121		7.454545		91.327338		-0.009369		1.409403		0.755615		30.465591		-5.792507		-9.136498		-41.815392		-27.905776		-3.741263		12.982844		23.726384		-1.736985		-13.342978		-32.609712		-23.977433		-20.335936		19.987058		-48.646128		0.029258		0.647124		-20.051796		0.218096		-2.527234		-32.343513		-34.339162		-16.294481		65.141899		86.261656		-27.418193		-8.120591		51.623205		-36.668541		-27.964211		-23.983363		73.435261		-80.674408		-25.961191		-8.961770		-90.000210		
0.803939		-2.639416		7.867742		91.274121		-0.009586		1.394952		0.744369		29.381302		-5.904007		-9.231267		-40.463787		-28.068977		-3.940690		13.099411		22.743970		-1.618084		-13.712011		-31.353963		-24.099790		-19.967512		20.421162		-48.296866		-0.128933		0.776024		-21.355636		0.307753		-2.760644		-34.837960		-33.058247		-17.612749		64.350113		85.643373		-27.406964		-7.832967		51.090921		-38.937903		-27.229672		-24.678779		72.491340		-81.058871		-25.613126		-8.278028		-90.000210		
0.808333		-2.734435		8.135179		91.276192		-0.009867		1.380002		0.733186		28.445947		-6.021165		-9.384856		-39.106129		-28.160432		-4.097229		13.155292		21.959928		-1.480244		-13.941022		-30.113412		-24.221132		-19.675234		20.731749		-47.784464		-0.233901		0.820085		-22.734432		0.421476		-2.900205		-37.205959		-31.810916		-18.754099		63.604317		84.935715		-27.658379		-7.583143		50.811051		-41.268557		-26.398791		-25.517197		71.752679		-81.634898		-25.309325		-7.915621		-90.000210		
0.812727		-2.833464		8.523417		91.281181		-0.010066		1.365107		0.721991		27.327191		-6.131618		-9.576748		-37.652001		-28.206492		-4.281393		13.280014		21.007541		-1.347409		-14.243505		-28.781022		-24.301990		-19.286862		21.253679		-47.428733		-0.336568		0.883541		-24.016812		0.514839		-3.058879		-39.571677		-30.546692		-19.902784		63.037196		84.016319		-27.892926		-7.277743		50.432780		-43.539008		-25.644051		-26.238571		71.081339		-82.472729		-24.914641		-7.523636		-90.000210		
0.817121		-2.906535		8.606253		91.369551		-0.010378		1.349377		0.710944		26.562058		-6.254933		-9.843525		-36.235770		-28.166632		-4.494578		13.302441		20.462393		-1.195346		-14.400617		-27.508828		-24.371534		-18.982211		21.483775		-46.750900		-0.373426		0.819120		-25.344767		0.628952		-3.051933		-41.798888		-29.271463		-20.995124		62.516556		83.376643		-28.244211		-7.097815		50.268826		-45.844261		-24.753736		-27.126210		70.601279		-82.751730		-24.595103		-7.416838		-90.000210		
0.821515		-2.973964		9.201763		91.553609		-0.010677		1.334522		0.699736		25.068761		-6.392626		-10.394240		-34.585935		-28.114710		-4.855401		13.479980		19.255515		-1.069672		-14.696000		-26.041062		-24.251379		-18.102580		22.475109		-46.690091		-0.319921		0.792126		-26.367090		0.648735		-3.157017		-44.099475		-27.968744		-22.109228		62.386036		81.848111		-28.628440		-6.505267		49.775954		-48.049025		-24.093673		-27.626245		70.271924		-83.115874		-23.671065		-7.504591		-90.000210		
0.825909		-3.061956		9.223180		91.660046		-0.010924		1.318283		0.688776		24.359510		-6.516378		-10.754451		-33.107022		-27.985934		-5.126027		13.504049		18.789715		-0.898768		-14.831156		-24.767333		-24.212423		-17.724933		22.812171		-45.989951		-0.378174		0.680641		-27.585193		0.671985		-3.079427		-46.218341		-26.664190		-23.201999		62.173376		81.227418		-28.969438		-6.373492		49.595686		-50.279815		-23.222296		-28.457423		70.010993		-82.954993		-23.202843		-7.532579		-90.000210		
0.830303		-3.042335		9.928118		91.828520		-0.011342		1.303296		0.677527		22.653022		-6.555273		-11.454687		-31.265143		-27.841854		-5.363092		13.753948		17.454438		-0.881460		-15.188959		-23.306862		-23.845753		-16.552051		24.712503		-46.073900		-0.251304		0.630013		-28.453643		0.632407		-3.138127		-48.346147		-25.457808		-24.270316		62.318373		79.713933		-29.153310		-5.704837		48.741257		-52.447399		-22.430508		-28.831452		70.076140		-81.447977		-21.545222		-7.510818		-90.000210		
0.834697		-3.237716		9.830344		91.977186		-0.011835		1.286524		0.666700		22.101000		-6.792428		-11.755870		-29.841136		-27.618475		-5.682649		13.758665		17.123652		-0.550362		-15.229885		-21.997587		-23.767311		-16.244585		24.970708		-45.268856		-0.364354		0.440377		-29.599857		0.609172		-3.091023		-50.363542		-24.120409		-25.436621		62.380029		79.277053		-29.352778		-5.704791		48.654799		-54.534726		-21.641911		-29.520751		70.019005		-81.234807		-21.302256		-7.364537		-90.000210		
0.839091		-3.417109		10.212632		92.261383		-0.012456		1.270621		0.655672		20.825113		-7.055612		-12.388171		-28.169956		-27.247535		-5.831340		13.869571		16.190146		-0.249600		-15.380858		-20.588020		-23.413598		-15.335619		25.772085		-45.014279		-0.350347		0.275390		-30.501873		0.557172		-3.222268		-52.337388		-22.653118		-26.859564		62.691780		78.390347		-29.167791		-5.279386		48.355362		-56.415849		-21.021973		-29.914513		70.084841		-80.365309		-20.566290		-7.225921		-90.000210		
0.843485		-3.507638		10.335584		92.343069		-0.012732		1.254060		0.644919		19.910617		-7.130052		-12.714897		-26.493212		-26.980792		-5.840995		13.951204		15.645565		-0.073842		-15.451548		-19.368342		-23.143857		-14.868564		26.266473		-44.503036		-0.429181		0.147110		-31.354382		0.592878		-3.229925		-54.149014		-21.443219		-27.957879		63.055320		77.875739		-29.068728		-5.173916		48.157352		-58.307076		-20.289082		-30.426630		70.221479		-79.939825		-20.168737		-6.992151		-90.000210		
0.847879		-3.576987		11.129270		92.615256		-0.013388		1.238642		0.633772		18.101994		-7.262981		-13.507935		-24.720990		-26.671463		-5.398204		14.458782		14.293085		0.069405		-15.667485		-18.062351		-22.789499		-13.751945		27.771791		-44.697995		-0.299465		0.054767		-32.295800		0.649180		-3.312629		-55.948348		-19.984986		-29.639041		63.631586		77.050622		-28.059230		-4.813420		47.397603		-59.987733		-19.668223		-30.870108		70.458121		-79.005020		-19.611234		-6.481221		-90.000210		
0.852273		-3.710157		11.038049		92.699072		-0.013624		1.221448		0.623302		17.545162		-7.349401		-13.619850		-23.246392		-26.596241		-5.368627		14.584632		14.105964		0.285485		-15.653137		-17.063845		-22.679728		-13.595102		28.078478		-44.006026		-0.435565		-0.044835		-33.234083		0.773561		-3.134816		-57.480427		-18.683983		-30.865776		64.056142		76.738997		-28.001383		-4.990621		47.250115		-61.535108		-18.951263		-31.629499		70.651503		-78.940437		-19.500037		-6.257940		-90.000210		
0.856667		-3.774272		11.563422		92.931574		-0.014090		1.205293		0.612807		16.166900		-7.420395		-14.259995		-21.604819		-26.624125		-4.845606		15.488544		13.231849		0.394725		-15.647744		-16.054351		-22.641087		-12.919188		29.499228		-44.059945		-0.369541		-0.120744		-33.799684		0.874902		-3.160194		-58.873957		-17.319495		-32.525814		64.581166		76.271420		-26.603750		-4.792647		46.606731		-62.887120		-18.453792		-32.148515		70.970974		-78.436912		-19.473863		-6.119924		-90.000210		
